<svg xmlns="http://www.w3.org/2000/svg" width="65.509" height="58.007" viewBox="0 0 65.509 58.007"><defs><style>.a{fill:#bcdce2;}</style></defs><path class="a" d="M46.488,12.9c-7.67,0-11.731,3.7-13.752,6.654C30.717,16.6,26.661,12.9,19.007,12.9,9.853,12.9,0,19,0,32.374A25.73,25.73,0,0,0,3.827,46.364c2.611,4.414,8.141,9.853,16.435,16.168C23.5,65,26.481,67.07,28.413,68.375c3.712,2.509,3.857,2.535,4.306,2.535h.066c.424,0,.716-.135,4.265-2.522,1.933-1.3,4.918-3.366,8.158-5.825,8.3-6.3,13.849-11.753,16.481-16.2a25.725,25.725,0,0,0,3.82-13.991C65.509,19,55.649,12.9,46.488,12.9Z" transform="translate(0 -12.904)"/></svg>