<svg xmlns="http://www.w3.org/2000/svg" width="65.509" height="65.078" viewBox="0 0 65.509 65.078"><defs><style>.a{fill:#bcdce2;}</style></defs><path class="a" d="M61.682,25.286c-2.611-4.414-8.14-9.853-16.434-16.168C42.01,6.653,39.029,4.58,37.1,3.275,33.346.74,33.237.74,32.776.74s-.569,0-4.318,2.522c-1.933,1.3-4.917,3.366-8.157,5.825-8.3,6.3-13.848,11.752-16.48,16.2A25.724,25.724,0,0,0,0,39.276c0,13.377,9.86,19.47,19.021,19.47a17.394,17.394,0,0,0,9.308-2.408l-2.505,9.48H39.585l-2.531-9.577a17.262,17.262,0,0,0,9.447,2.5c9.155,0,19.008-6.093,19.008-19.47A25.727,25.727,0,0,0,61.682,25.286Z" transform="translate(0 -0.74)"/></svg>